# Simple cottage model
v -18.0 0.0 -6.0
v 12.0 0.0 -6.0
v 12.0 14.0 -6.0
v -18.0 14.0 -6.0
v -18.0 0.0 1.0
v 12.0 0.0 1.0
v 12.0 14.0 1.0
v -18.0 14.0 1.0
# Faces
f 1 2 3 4
f 5 6 7 8
f 1 2 6 5
f 2 3 7 6
f 3 4 8 7
f 4 1 5 8
# Door
v -5.0 0.0 -5.9
v -1.0 0.0 -5.9
v -1.0 7.0 -5.9
v -5.0 7.0 -5.9
f 9 10 11 12
# Windows
v -12.0 7.0 -5.9
v -8.0 7.0 -5.9
v -8.0 11.0 -5.9
v -12.0 11.0 -5.9
f 13 14 15 16
v 2.0 7.0 -5.9
v 6.0 7.0 -5.9
v 6.0 11.0 -5.9
v 2.0 11.0 -5.9
f 17 18 19 20
# Roof
v -20.0 14.0 -8.0
v 14.0 14.0 -8.0
v 14.0 14.0 3.0
v -20.0 14.0 3.0
f 21 22 23 24
# Chimney
v 6.0 14.0 -5.9
v 10.0 14.0 -5.9
v 10.0 17.0 -5.9
v 6.0 17.0 -5.9
f 25 26 27 28
